<svg width="44" height="43" viewBox="0 0 44 43" fill="none" xmlns="http://www.w3.org/2000/svg">
<path d="M31.0299 30.4583C29.0508 30.4583 27.4465 32.0626 27.4465 34.0417C27.4465 36.0207 29.0508 37.625 31.0299 37.625C33.0089 37.625 34.6132 36.0207 34.6132 34.0417C34.6132 32.0626 33.0089 30.4583 31.0299 30.4583ZM31.0299 30.4583H17.2232C16.3971 30.4583 15.9833 30.4583 15.6432 30.3114C15.3432 30.1817 15.0829 29.973 14.8933 29.7068C14.6807 29.4084 14.5952 29.0094 14.426 28.2197L10.0163 7.64083C9.84312 6.83276 9.75538 6.42918 9.54036 6.12736C9.35073 5.86117 9.09049 5.65166 8.79048 5.522C8.45031 5.375 8.03882 5.375 7.21241 5.375H5.94653M11.3215 10.75H34.3861C35.6792 10.75 36.3252 10.75 36.7592 11.0194C37.1394 11.2554 37.4177 11.6254 37.5391 12.0561C37.6776 12.5478 37.4996 13.1687 37.1412 14.4112L34.6604 23.0112C34.4461 23.7541 34.3389 24.1249 34.1215 24.4005C33.9296 24.6438 33.6765 24.8343 33.3896 24.9512C33.0654 25.0833 32.6802 25.0833 31.9115 25.0833H14.422M14.9049 37.625C12.9258 37.625 11.3215 36.0207 11.3215 34.0417C11.3215 32.0626 12.9258 30.4583 14.9049 30.4583C16.8839 30.4583 18.4882 32.0626 18.4882 34.0417C18.4882 36.0207 16.8839 37.625 14.9049 37.625Z" stroke="black" stroke-width="2" stroke-linecap="round" stroke-linejoin="round"/>
</svg>
